<svg width="400" height="125" version="1.1" 
    xmlns="http://www.w3.org/2000/svg">
    <rect x="10" y="10" width="30" height="30" stroke="black" fill="transparent" stroke-width="5"/>
    <rect x="60" y="10" rx="10" ry="10" width="30" height="30" stroke="black" fill="transparent" stroke-width="5"/>
    <circle cx="125" cy="25" r="20" stroke="red" fill="transparent" stroke-width="5"/>
    <ellipse cx="180" cy="25" rx="20" ry="5" stroke="red" fill="transparent" stroke-width="5"/>
    <line x1="10" y1="70" x2="50" y2="110" stroke="orange" stroke-width="5"/>
    <polyline points="60 70 65 80 70 75 75 90 80 85 85 100 90 95 95 110 100 105" stroke="orange" fill="transparent" stroke-width="5"/>
    <polygon points="150 70 155 90 170 90 160 100 165 115 150 105 135 115 140 100 130 90 145 90" stroke="green" fill="transparent" stroke-width="5"/>
    <path d="M200,90 Q220,65 230,90 T270,90" fill="none" stroke="blue" stroke-width="5"/>
</svg>
